<svg xmlns="http://www.w3.org/2000/svg" viewBox="0 0 180 180">
<!-- SVG created with Arrow, by QuiverAI (https://quiver.ai) -->
  <style type="text/css">.cls-0 {fill:#C94E65;}
.cls-1 {fill:#8A1538;}
.cls-2 {fill:#368094;}
.cls-3 {fill:#07344C;}
.cls-4 {fill:#E2B59D;}
.cls-5 {fill:#EADBB4;}
.cls-6 {fill:#D8501A;}
.cls-7 {fill:#C43845;}
.cls-8 {fill:#C43A00;}
.cls-9 {fill:#8FAEA0;}
.cls-10 {fill:#911330;}
.cls-11 {fill:#E59190;}
.cls-12 {fill:#E2BEA6;}
.cls-13 {fill:#E0B59E;}
.cls-14 {fill:#0C3D40;}
.cls-15 {fill:#DD941B;}
.cls-16 {fill:#C6740A;}
.cls-17 {fill:#CD4B60;}
.cls-18 {fill:#D13848;}
.cls-19 {fill:#E5918C;}
.cls-20 {fill:#E8BBA5;}
.cls-21 {fill:#C8750A;}
.cls-22 {fill:#E9C58D;}
.cls-23 {fill:#E8B664;}
.cls-24 {fill:#8FB0A1;}
.cls-25 {fill:#E8C4A5;}
.cls-26 {fill:#931442;}
.cls-27 {fill:#E0B29B;}
.cls-28 {fill:#E8DAB1;}
.cls-29 {fill:#0E4044;}
.cls-30 {fill:#E2B178;}
.cls-31 {fill:#0B3C44;}
.cls-32 {fill:#E0A61B;}
.cls-33 {fill:#C2740A;}
.cls-34 {fill:#113E3F;}
.cls-35 {fill:#C43E27;}
.cls-36 {fill:#C44014;}</style>
  <rect class="cls-0" y="89.8" width="90" height="77.9"/>
  <rect class="cls-1" x="90" y="89.8" width="90" height="77.9"/>
  <rect class="cls-2" width="90" height="90"/>
  <rect class="cls-3" x="90" width="90" height="90"/>
  <path class="cls-4" d="m139.3 72.1h-14.3c9.5 0 23 4.9 23 17.9h17c-0.8-10.1-12.6-17.9-25.7-17.9z"/>
  <path class="cls-2" d="m131.4 71.8h-6.4c9.5 0 31.3 3.2 31.3 25.2v42.4c4.1 0.7 7.2 1.3 6.7 1.3v-44.1c0-16.3-13.7-24.8-23.7-24.8h-7.9z"/>
  <path class="cls-5" d="m116.2 34-10.1 10h25.3v-24.9l-15.2 14.9z"/>
  <path class="cls-6" d="m106.1 44-16.1 15.7h27.2c1.5-3.6 3-8 3-11.1 0-1.5 0-3.6-0.2-4.6h-13.9z"/>
  <path class="cls-7" d="m108.2 71.4c3.4-2 6.4-5.1 9-11.4h23.1c-4.2 6.1-10.8 11.4-19.4 11.4h-12.7z"/>
  <path class="cls-8" d="m131.4 19.1 7.2-6.7c1.5-1.4 2.5-1.6 4-1.6h3.4v33.2h-14.6v-24.9z"/>
  <path class="cls-9" d="m125 44c2.5 1.3 3.6 3.6 3.6 6.2 0 3.3-1.3 7.2-3.5 9.8h15.2c2.3-3.2 3.9-5.9 5.1-12.9 0-1 0.3-3.1 0.3-3.1h-20.7z"/>
  <path class="cls-10" d="m90 59.7v11.7h18.2c3.6-2 7.2-5.6 9.2-11.4h-27.4v-0.3z"/>
  <path class="cls-11" d="m0 168.1h180v11.9h-180v-11.9z"/>
  <path class="cls-12" d="m125.2 44c2.6 1.3 3.4 3.6 3.4 6.2 0 3.3-1.3 7.2-3.3 9.8h-7.9c1.3-3.4 2.8-8 2.8-11.6v-3.9l-4-10.5 15.2-14.9v24.9h-6.2z"/>
  <path class="cls-13" d="m107.4 71.4-0.3 2.3-9.9 9.5c-1.8 1.5-3.9 3.9-5.4 6.3h15.6l-0.2 0.5h28.3v-18.6h-28.1z"/>
  <path class="cls-11" d="m90 71.4v18.1h2c0.6-1.1 2.4-3.4 5.4-6.1l9.5-9.2c0.5-0.8 0.5-1.8 0.5-2.8h-17.4z"/>
  <path class="cls-14" d="m125.4 71.4c7.5 0 20.8 5.9 20.8 21.2v42c-2.3-1.2-7.6-6-7.9-7l-12.9-56.2z"/>
  <path class="cls-2" d="m125.4 136.2c0.8 1.3 2.9 2.8 5.2 3.1l7.9-7-0.2 25.5h-12.9v-21.6z"/>
  <path class="cls-15" d="m27 100c-5.7 0-9.3 4.3-9.6 9.7h23.8v-9.7h-14.2z"/>
  <path class="cls-16" d="m58.2 119.7v11.3c0 2.6 2.3 7.7 6.7 7.8h1.1c4.3 0 6.4-4.4 6.4-7.3v-11.8h-14.2z"/>
  <path class="cls-17" d="m65.6 10.8v12.1c3.6 1.8 6.8 5.1 7.6 9.5l0.5 27.3h16.3v-27.6c0-12-8.9-21.3-18.4-21.3h-6z"/>
  <path class="cls-5" d="m73.4 32.4h-18.3l-4 27.3h22.5v-22.9l-0.2-4.4z"/>
  <path class="cls-18" d="m73.6 36 0.1 23.7h16.3v-3.1l-16.4-20.6z"/>
  <path class="cls-20" d="m51.1 59.7-7 18.7 29.5 11.1v-29.8h-22.5z"/>
  <path class="cls-15" d="m17.4 129.7v5.5c0.3 3.1 1.3 5.9 3.9 7.4 1.6 0.8 4.4 2.4 4.6 3.4 0.8-0.3 1.3-2.6 1.8-3.4 1.8-2 2.4-4.3 2.4-6.9v-6h-12.7z"/>
  <path class="cls-21" d="m73.6 59.7v60.2h16.4v-60.2h-16.4z"/>
  <path class="cls-22" d="m17.4 109.7v20h12.7v-20h-12.7z"/>
  <path class="cls-5" d="m36 26.8c3.9-3.9 8.6-6.2 15.3-6.2h6.9l0.2 11.8h-27.9l5.5-5.6z"/>
  <path class="cls-11" d="m36 26.8-5.5 5.6h12c-3.1-0.5-5.9-3.1-6.5-5.6z"/>
  <path class="cls-15" d="m27.9 44c1.6 3.6 5.2 4.9 8.1 4.9 3.6-0.3 6-2.3 8.9-4.9l3.5-11.6h-17.9c-3.8 3.3-4.1 7.7-2.6 11.6z"/>
  <path class="cls-19" d="m27.9 44c1.6 3.6 5.2 4.9 8.1 4.9 2.9-0.3 5.2-1.8 8.9-4.9h-17z"/>
  <path class="cls-18" d="m36 48.9c2.9-0.3 5.2-1.8 8.9-4.9h-4.5l-4.4 4.9z"/>
  <path class="cls-20" d="m58.1 10.8h7.5v12.1l-7.4-2.3-0.1-9.8z"/>
  <path class="cls-15" d="m45.1 10.8c-2.6 0-4.9 1.6-4.9 4.7s2.3 4.9 5.9 4.9h12v-9.6h-13z"/>
  <path class="cls-23" d="m58.1 20.9 0.1 11.5h15c-1.1-5.1-6.5-10.8-15.1-11.5z"/>
  <path class="cls-9" d="m44.9 44c2 0 4.8 0.1 6.7 0 2.8 0 6.3-1.5 7.9-4.7 1-2.3 1.5-4.6 1-6.9h-5.4l-5.6 6.9-4.6 4.7z"/>
  <path class="cls-24" d="m92.1 89.5c-1.3 2.3-1.8 4.5-1.8 7.9 0 9.5 7.1 16 16.9 20v-21.3c0-2.1 0.5-4.3 1.2-6.6h-16.3z"/>
  <path class="cls-25" d="m118.2 71.4h-10.8l-0.3 18.1h1.3c1.3-3.4 4.2-7.4 9.5-7.4 4.7 0 8.6 3.6 9.4 7.9h2v18.7l9.2 18.9c-0.2 1.4 0 3.3-0.2 5.8-0.5 3.1-2.8 5.9-7.2 5.9-0.8 0-1.8-0.3-2.5-0.8l-3.2-21.1v-27.4h12.6v-7.4c-2.8-6-9.4-11.2-19.8-11.2z"/>
  <path class="cls-26" d="m117.9 82.1c-4.8 0-7.4 2.6-9.5 7.4-0.2 0.8-0.2 1.6-0.2 2.6 0.5 5.5 4.4 9.7 9.7 9.7 4.7 0 9.4-3.9 9.4-9.7 0-0.8 0-1.8-0.2-2.6-0.9-3.8-4.5-7.4-9.2-7.4z"/>
  <path class="cls-5" d="m128.8 75 0.1 30.4c0.4 4.3 2.2 9.5 3.5 12.7 1.3 3.1 4.1 6.9 6.1 9.2l-0.2-36.2c-0.3-6.1-3.8-12.5-9.5-16.1z"/>
  <path class="cls-29" d="m41.2 89.8v19.9h13.2c11.2 0 18-7.6 19.2-19.7l-32.4-0.2z"/>
  <path class="cls-0" d="m43.8 109.7c3.6 3.7 9.5 8 14.4 9.4l15.4 0.6v-30.2l-29.8 20.2z"/>
  <path class="cls-26" d="m43.8 109.7c3.6 3.7 9.5 8 14.4 9.4l15.4 0.6v-30.2l-29.8 20.2z"/>
  <path class="cls-11" d="m57.7 70.4c-4.6 0-11.3 2.5-13.9 9.3-0.5 1.6-0.5 3.5-0.5 5.5 0 2.4 0.8 5.9 2.1 8.8 2.8 4.7 7.2 6.2 11.8 6.2 4.9-0.3 9-1.8 11.8-6.2 1.5-2.2 2.6-6.4 2.6-9.3 0-8.6-6.5-14.3-13.9-14.3z"/>
  <path class="cls-2" d="m58.1 138.8v19h8.6c4.1 0 5.9-3.1 5.8-7.8v-11.3l-14.4 0.1z"/>
  <path class="cls-15" d="m57.9 157.8c-4.3 0-7.6 3.3-8.6 7.4v2.9h23.2v-10.3h-14.6z"/>
  <path class="cls-30" d="m58.1 20.9v11.5h15.1c-1.1-5.1-6.5-10.8-15.1-11.5z"/>
  <path class="cls-3" d="m52.4 27.3h2c2.3 0 4.2 1.8 4.2 4.1v1.8c0 2.3-1.9 4.1-4.2 4.1h-2c-2.3 0-4.4-1.8-4.4-4.1v-1.3c0-2.6 2.1-4.6 4.4-4.6z"/>
  <path class="cls-31" d="m33 35.2h4.6c1.5 0 2.8 1.3 2.8 2.8 0 1.6-1.3 2.8-2.8 2.8h-4.6c-1.4 0-2.9-1.2-2.9-2.8 0-1.5 1.2-2.8 2.9-2.8z"/>
  <path class="cls-3" d="m107.2 96.1v21.8l4.1 1.8 14.1 16.5c1.1 1.3 2.4 2.3 3.7 2.6-0.3-5.2-2.4-10.2-4.9-14.1-2.1-3.5-6-9.5-6.1-21.1v-1.8c-4.5 0-9.7-3.1-9.9-10.5-0.5 1.6-1 3.2-1 4.8z"/>
  <path class="cls-15" d="m125 157.8c-2.9 0-8.1 2.8-8.2 7.9v2.4h21.5v-10.4l-13.3 0.1z"/>
  <path class="cls-1" d="m90 119.7v48.4h26.8l8.6-10.3 0.1-24.2-14.2-13.9h-21.3z"/>
  <path class="cls-8" d="m97.7 119.7c6.9 6.8 12.6 10.9 12.6 16.8s-8.7 15.1-12.1 21.3l13.1 0.1c1.3-4.8 11.3-14 13.1-23.5-0.8-3.8-4.7-11-13.1-14.7h-13.6z"/>
  <path class="cls-32" d="m22.1 129.7v5.7c0 1.3-1.3 2.6-2.6 2.6-1 0-2.1-1-2.1-2.6v-5.7h4.7z"/>
  <path class="cls-34" d="m22.1 129.7v5.7c0 1.3-1.3 2.6-2.6 2.6-1 0-1.8-0.5-2.1-1.8 0 3.1 2.1 5.6 3.9 6.4s4.1 2.1 4.6 3.4c0.5 0 1.3-2.6 1.8-3.4 1.8-2 2.4-4.3 2.4-6.9v-6h-8z"/>
  <path class="cls-22" d="m90 89.5v30.2h17.2v-2.1c-9.8-3.7-16.9-10-16.9-20.2 0-2.9 0.5-5.6 1.8-7.9h-2.1z"/>
  <path class="cls-35" d="m119.9 56.8c0.3 0.8 0.8 1.8 0 3.2h3.2c0-1.4-1.3-2.4-3.2-3.2z"/>
  <path class="cls-11" d="m119.9 56.8c-0.2 0.8-1.2 1.8-2.5 3.2h3.3c0.4-1.4 0-2.4-0.8-3.2z"/>
  <path class="cls-36" d="m97.7 119.7 3.6 3.7 10-1.6v-2.1h-13.6z"/>
  <path class="cls-34" d="m98.2 157.8c-3.6 0-7.1 2.8-8.2 6.6v3.7h21.1v-10.4l-12.9 0.1z"/>
  <path class="cls-26" d="m115.1 89.5h12.2c-0.8-3.8-3.9-6.3-6.6-6.3l-5.6 6.3z"/>
</svg>