<svg xmlns="http://www.w3.org/2000/svg" width="250" height="220" viewBox="0 0 250 220">
  <metadata>
                <![CDATA[
            {
  "prompt": {
    "4": {
      "inputs": {
        "prompt": "Fiery phoenix silhouette on a solid charcoal-black background, flat vector logo with crisp edges, soaring pose with fanned tail feathers",
        "model": "arrow-preview",
        "model.temperature": 1.0,
        "model.top_p": 1.0,
        "model.presence_penalty": 0.0,
        "seed": 999304079,
        "instructions": ""
      },
      "class_type": "QuiverTextToSVGNode",
      "_meta": {
        "title": "Quiver Text to SVG"
      }
    },
    "5": {
      "inputs": {
        "filename_prefix": "svg/Quiver",
        "svg": [
          "4",
          0
        ]
      },
      "class_type": "SaveSVGNode",
      "_meta": {
        "title": "SaveSVGNode"
      }
    }
  },
  "workflow": {
    "id": "6df82507-668a-4ee0-83b3-9dfadc5336dc",
    "revision": 0,
    "last_node_id": 5,
    "last_link_id": 3,
    "nodes": [
      {
        "id": 5,
        "type": "SaveSVGNode",
        "pos": [
          1730,
          1950
        ],
        "size": [
          430,
          410
        ],
        "flags": {},
        "order": 1,
        "mode": 0,
        "inputs": [
          {
            "name": "svg",
            "type": "SVG",
            "link": 3
          }
        ],
        "outputs": [],
        "properties": {
          "ue_properties": {
            "widget_ue_connectable": {},
            "input_ue_unconnectable": {}
          },
          "cnr_id": "comfy-core",
          "ver": "0.18.1",
          "Node name for S&R": "SaveSVGNode"
        },
        "widgets_values": [
          "svg/Quiver"
        ]
      },
      {
        "id": 4,
        "type": "QuiverTextToSVGNode",
        "pos": [
          1290,
          1950
        ],
        "size": [
          400,
          410
        ],
        "flags": {},
        "order": 0,
        "mode": 0,
        "inputs": [
          {
            "label": "ref_0",
            "name": "reference_images.ref_0",
            "shape": 7,
            "type": "IMAGE",
            "link": null
          }
        ],
        "outputs": [
          {
            "name": "SVG",
            "type": "SVG",
            "links": [
              3
            ]
          }
        ],
        "properties": {
          "ue_properties": {
            "widget_ue_connectable": {},
            "input_ue_unconnectable": {}
          },
          "cnr_id": "comfy-core",
          "ver": "0.18.1",
          "Node name for S&R": "QuiverTextToSVGNode"
        },
        "widgets_values": [
          "Fiery phoenix silhouette on a solid charcoal-black background, flat vector logo with crisp edges, soaring pose with fanned tail feathers",
          "arrow-preview",
          1,
          1,
          0,
          999304079,
          "randomize",
          ""
        ],
        "color": "#432",
        "bgcolor": "#653"
      }
    ],
    "links": [
      [
        3,
        4,
        0,
        5,
        0,
        "SVG"
      ]
    ],
    "groups": [],
    "config": {},
    "extra": {
      "ds": {
        "scale": 1.2284597357367273,
        "offset": [
          -1010.4515907401033,
          -1736.804980214281
        ]
      },
      "frontendVersion": "1.41.21",
      "ue_links": [],
      "links_added_by_ue": [],
      "VHS_latentpreview": false,
      "VHS_latentpreviewrate": 0,
      "VHS_MetadataImage": true,
      "VHS_KeepIntermediate": true
    },
    "version": 0.4,
    "widget_idx_map": {
      "4": {
        "seed": 5
      }
    }
  }
}
                ]]>
            </metadata>
            
<!-- SVG created with Arrow, by QuiverAI (https://quiver.ai) -->
  <path d="m249 0.18h-248v218.8h248v-218.8z" fill="#202124"/>
  <path d="m5.36 2.85 44.71 32.39 9.71 19.64-38.5-18.85c-9.16-10-13.87-20.97-15.92-33.18z" fill="#A01921"/>
  <path d="m3.65 31.58 53.61 27.06 6.99 10.3-41.39-8.58c-9.78-7.59-15.99-17.85-19.21-28.78z" fill="#F15A22"/>
  <path d="m8.26 60.19 56.81 14.82 7.45 8.91-39.7-3.31c-9.88-4.69-18.54-11.71-24.56-20.42z" fill="#F8A62B"/>
  <path d="m19.87 84.15 61.27 4.51 3.94 4.05-36.27 5.67c-10.03-2.24-20.63-7.03-28.94-14.23z" fill="#F15A22"/>
  <path d="m38.96 103.5 48.44-6.38 2.75 2.19-24.42 10.35c-8.36-0.83-17.24-1.81-26.77-6.16z" fill="#F8A62B"/>
  <path d="m60.21 116.8 33.36-14.64 2.56 1.15-12.18 12.37c-7.2 1.65-14.91 2.81-23.74 1.12z" fill="#F15A22"/>
  <path d="m79.43 124.5 19.28-19.49 4.81 3.31 6.65 13.85c-3.83-2.98-8.19-5.11-10.71-6.26-5.75 4.16-10.42 6.88-20.03 8.59z" fill="#F8A62B"/>
  <path d="m244.8 2.81-45.52 32.66-10.87 21.43 39.24-20.6c9.16-9.99 15.1-21.28 17.15-33.49z" fill="#B11B26"/>
  <path d="m247.4 31.46-53.36 27.07-8.73 10.43 40.57-8.86c9.78-7.59 18.31-17.71 21.52-28.64z" fill="#F15A22"/>
  <path d="m242.1 59.96-57.29 15.96-7.54 8.91 40.55-5.03c9.87-4.69 18.26-11.14 24.28-19.84z" fill="#F8A62B"/>
  <path d="m229.4 84.24-57.23 4.55-7.74 5.31 36.27 5.01c10.03-2.24 20.39-7.67 28.7-14.87z" fill="#F15A22"/>
  <path d="m210 104.1-47.03-7.54-4.49 2.56 25.23 10.58c9.42-0.83 16.76-1.25 26.29-5.6z" fill="#F8A62B"/>
  <path d="m188.7 116.8-32.81-14.64-2.02 1.32 13.13 12.55c7.89 1.4 13.05 2.28 21.7 0.77z" fill="#F15A22"/>
  <path d="m170.5 124.2-20.05-19.15-2.75 2.39-9.02 15.09c5.11-2.72 7.39-4.42 10.61-6.1 7.01 4.29 10.39 6.41 21.21 7.77z" fill="#F8A62B"/>
  <path d="m75.22 185c9.38-2.23 15.46-6.41 22.26-12.24l16.31-42.15-0.32-2.2-0.26-0.38-0.79 0.31-37.2 56.66z" fill="#A01921"/>
  <path d="m90.97 200.8c7.48-4.18 15.3-11.95 19.12-16.33l7.72-47.32-1.66-2.1-25.18 65.75z" fill="#F15A22"/>
  <path d="m124.7 215.7-10.09-23.87-0.34-2.53 6.88-43.37 3.33 5.16 0.22 64.61z" fill="#F6871F"/>
  <path d="m124.7 215.7 10.38-24.81 0.2-1.59-6.41-43.56-4.17 4.79v65.17z" fill="#F8A62B"/>
  <path d="m158.6 200.6c-7.68-4.46-14.87-10.29-20.44-16.48l-7.96-46.17 4.7-2.72 23.7 65.37z" fill="#F15A22"/>
  <path d="m173.4 184.9c-8.39-2.56-13.56-6.45-21.12-10.83l-17.12-41.32 1.31-4.68 36.93 56.83z" fill="#F8A62B"/>
  <path d="m234.6 52.84-0.1 0.08 0.13-0.13-0.03 0.05z" fill="#C57929"/>
  <path d="m244.8 2.81-0.09 0.06 0.09-0.06z" fill="#C57929"/>
  <path d="m193.9 36.77-31.41 22.22-1.04 0.71c-4.16 17.98-8.23 24.4-22.63 25.59l-5.57-12.27c-2-9.11 4-15.79 12.56-15.61 0.46 0.47 0.06-1.27-0.59-2.14-2.38-3.33-6.06-3-9.65-2.43-2.12-2.47-7.54-2.83-11.7-0.35-8.47 4.89-10.67 5.15-16.82 5.2 3 2.99 8.31 3.26 10.43 3.52l-6.93 23.95c-12.71 0.26-18.32-7.17-23.07-26.15l-32.06-21.98c4.41 11.06 10.79 21.66 20.56 31.28l-16.46-7.55c4.63 7.4 11.28 13.98 19.8 19.43l-7.27-2.98c8.03 8.91 18.38 17.45 33.05 28.12l19.03 38.4 20.11-38.41c12.5-9.04 24.37-18.41 33.63-28.5l-7.71 1.16c7.81-5.07 14.97-10.9 18.41-16.73l-15.72 7.29c9.47-9.04 16.04-19.36 21.05-31.77z" fill="#A01921"/>
  <path d="m124.5 106.2v-30.14c0.51-9.79 7.79-17.21 19.52-18.87-8.77 0.88-12.95 6.87-11.43 15.89l5.83 12.21-13.92 20.91z" fill="#F8A62B"/>
</svg>